<?xml version="1.0" encoding="utf-8"?>
<svg viewBox="0 0 199.5 223.499992" xmlns="http://www.w3.org/2000/svg">
  <defs>
    <clipPath id="29bc7dc485">
      <path d="M 27 0.03125 L 171 0.03125 L 171 112 L 27 112 Z M 27 0.03125 " clip-rule="nonzero"/>
    </clipPath>
    <clipPath id="44b1cafa27">
      <path d="M 75 182 L 124 182 L 124 222.09375 L 75 222.09375 Z M 75 182 " clip-rule="nonzero"/>
    </clipPath>
    <clipPath id="5665a923a6">
      <path d="M 146 71 L 197.804688 71 L 197.804688 143 L 146 143 Z M 146 71 " clip-rule="nonzero"/>
    </clipPath>
    <clipPath id="a2856bf347">
      <path d="M 0.671875 71 L 52 71 L 52 143 L 0.671875 143 Z M 0.671875 71 " clip-rule="nonzero"/>
    </clipPath>
    <clipPath id="a42823584d">
      <path d="M 53.996094 56.964844 L 145 56.964844 L 145 148 L 53.996094 148 Z M 53.996094 56.964844 " clip-rule="nonzero"/>
    </clipPath>
  </defs>
  <g clip-path="url(#29bc7dc485)">
    <path fill="#364f6b" d="M 43.664062 103.285156 C 43.664062 72.613281 68.566406 47.710938 99.238281 47.710938 C 129.910156 47.710938 154.8125 72.613281 154.8125 103.285156 C 154.8125 107.671875 158.363281 111.222656 162.75 111.222656 C 167.140625 111.222656 170.691406 107.671875 170.691406 103.285156 C 170.691406 103.285156 170.691406 67.480469 170.691406 39.769531 C 170.691406 17.847656 152.921875 0.0742188 130.996094 0.0742188 C 111.597656 0.0742188 86.878906 0.0742188 67.480469 0.0742188 C 45.554688 0.0742188 27.785156 17.847656 27.785156 39.769531 L 27.785156 103.285156 C 27.785156 107.671875 31.335938 111.222656 35.726562 111.222656 C 40.113281 111.222656 43.664062 107.671875 43.664062 103.285156 Z M 43.664062 58.394531 L 43.664062 39.769531 C 43.664062 26.621094 54.332031 15.953125 67.480469 15.953125 C 86.878906 15.953125 111.597656 15.953125 130.996094 15.953125 C 144.144531 15.953125 154.8125 26.621094 154.8125 39.769531 L 154.8125 58.394531 C 141.710938 42.191406 121.675781 31.832031 99.238281 31.832031 C 76.800781 31.832031 56.765625 42.191406 43.664062 58.394531 " fill-opacity="1" fill-rule="evenodd"/>
  </g>
  <path fill="#364f6b" d="M 83.359375 210.460938 C 72.335938 210.460938 77.171875 210.460938 67.480469 210.460938 C 45.554688 210.460938 27.785156 192.691406 27.785156 170.765625 L 27.785156 103.285156 C 27.785156 98.894531 31.335938 95.34375 35.726562 95.34375 C 40.113281 95.34375 43.664062 98.894531 43.664062 103.285156 L 43.664062 170.765625 C 43.664062 183.914062 54.332031 194.582031 67.480469 194.582031 C 77.171875 194.582031 72.335938 194.582031 83.359375 194.582031 C 87.75 194.582031 91.300781 198.132812 91.300781 202.523438 C 91.300781 206.910156 87.75 210.460938 83.359375 210.460938 " fill-opacity="1" fill-rule="evenodd"/>
  <path fill="#38b6ff" d="M 83.359375 190.613281 L 115.117188 190.613281 L 115.117188 214.429688 L 83.359375 214.429688 L 83.359375 190.613281 " fill-opacity="1" fill-rule="evenodd"/>
  <g clip-path="url(#44b1cafa27)">
    <path fill="#364f6b" d="M 75.421875 190.613281 C 75.421875 186.226562 78.972656 182.675781 83.359375 182.675781 L 115.117188 182.675781 C 119.503906 182.675781 123.054688 186.226562 123.054688 190.613281 L 123.054688 214.429688 C 123.054688 218.820312 119.503906 222.371094 115.117188 222.371094 L 83.359375 222.371094 C 78.972656 222.371094 75.421875 218.820312 75.421875 214.429688 Z M 107.175781 198.550781 L 107.175781 206.492188 L 91.300781 206.492188 L 91.300781 198.550781 L 107.175781 198.550781 " fill-opacity="1" fill-rule="evenodd"/>
  </g>
  <path fill="#364f6b" d="M 71.46875 151.414062 C 79.640625 156.144531 89.128906 158.855469 99.238281 158.855469 C 129.910156 158.855469 154.8125 133.953125 154.8125 103.285156 C 154.8125 72.613281 129.910156 47.710938 99.238281 47.710938 C 68.566406 47.710938 43.664062 72.613281 43.664062 103.285156 C 43.664062 107.671875 40.113281 111.222656 35.726562 111.222656 C 31.335938 111.222656 27.785156 107.671875 27.785156 103.285156 C 27.785156 63.851562 59.804688 31.832031 99.238281 31.832031 C 138.671875 31.832031 170.691406 63.851562 170.691406 103.285156 C 170.691406 142.714844 138.671875 174.734375 99.238281 174.734375 C 86.230469 174.734375 74.027344 171.246094 63.496094 165.152344 C 59.714844 162.964844 58.410156 158.097656 60.613281 154.3125 C 62.800781 150.515625 67.667969 149.226562 71.46875 151.414062 " fill-opacity="1" fill-rule="evenodd"/>
  <path fill="#38b6ff" d="M 154.890625 133.910156 C 157.371094 134.636719 160.023438 135.039062 162.75 135.039062 C 178.085938 135.039062 190.539062 122.589844 190.539062 107.253906 C 190.539062 91.917969 178.085938 79.464844 162.75 79.464844 C 161.230469 79.464844 159.726562 79.589844 158.269531 79.824219 C 161.167969 87.082031 162.75 95.003906 162.75 103.285156 C 162.75 114.386719 159.898438 124.820312 154.890625 133.910156 " fill-opacity="1" fill-rule="evenodd"/>
  <g clip-path="url(#5665a923a6)">
    <path fill="#364f6b" d="M 152.640625 141.523438 C 150.332031 140.839844 148.453125 139.148438 147.539062 136.933594 C 146.625 134.699219 146.765625 132.171875 147.925781 130.0625 C 152.316406 122.125 154.8125 112.992188 154.8125 103.285156 C 154.8125 96.042969 153.417969 89.113281 150.890625 82.769531 C 150.003906 80.519531 150.175781 78.007812 151.371094 75.914062 C 152.546875 73.824219 154.625 72.378906 157 71.992188 C 158.875 71.683594 160.796875 71.527344 162.75 71.527344 C 182.472656 71.527344 198.476562 87.53125 198.476562 107.253906 C 198.476562 126.976562 182.472656 142.980469 162.75 142.980469 C 159.230469 142.980469 155.835938 142.46875 152.640625 141.523438 Z M 169.140625 88.460938 C 176.96875 91.128906 182.597656 98.539062 182.597656 107.253906 C 182.597656 116.835938 175.792969 124.835938 166.765625 126.699219 C 169.308594 119.363281 170.691406 111.488281 170.691406 103.285156 C 170.691406 98.199219 170.164062 93.234375 169.140625 88.460938 " fill-opacity="1" fill-rule="evenodd"/>
  </g>
  <path fill="#38b6ff" d="M 40.207031 79.824219 C 38.75 79.589844 37.246094 79.464844 35.726562 79.464844 C 20.390625 79.464844 7.9375 91.917969 7.9375 107.253906 C 7.9375 122.589844 20.390625 135.039062 35.726562 135.039062 C 38.453125 135.039062 41.105469 134.636719 43.585938 133.910156 C 38.578125 124.820312 35.726562 114.386719 35.726562 103.285156 C 35.726562 95.003906 37.308594 87.082031 40.207031 79.824219 " fill-opacity="1" fill-rule="evenodd"/>
  <g clip-path="url(#a2856bf347)">
    <path fill="#364f6b" d="M 41.477 71.992 C 43.852 72.379 45.93 73.824 47.105 75.914 C 48.301 78.008 47.864 79.011 46.013 80.567 C 37.442 87.773 45.449 132.421 43.187 138.595 C 42.363 140.844 37.892 150.067 35.584 150.751 C 32.388 151.696 39.246 142.98 35.727 142.98 C 16.004 142.98 0 126.977 0 107.254 C 0 87.531 16.004 71.527 35.727 71.527 C 37.68 71.527 39.602 71.684 41.477 71.992 Z M 29.336 88.461 C 28.313 93.234 27.785 98.199 27.785 103.285 C 27.785 111.488 29.168 119.363 31.711 126.699 C 22.684 124.836 15.879 116.836 15.879 107.254 C 15.879 98.539 21.508 91.129 29.336 88.461" fill-opacity="1" fill-rule="evenodd"/>
  </g>
  <g clip-path="url(#a42823584d)">
    <path fill="#38b6ff" d="M 87.933594 56.964844 C 83.765625 56.964844 80.390625 60.339844 80.390625 64.507812 C 80.390625 64.570312 80.414062 64.632812 80.414062 64.699219 C 79.78125 64.625 79.160156 64.507812 78.507812 64.507812 C 69.136719 64.507812 61.535156 72.105469 61.535156 81.476562 C 61.535156 83.253906 61.882812 84.929688 62.390625 86.535156 C 59.40625 88.527344 57.054688 91.359375 55.601562 94.675781 L 76.621094 94.675781 L 76.621094 86.085938 C 74.378906 84.777344 72.851562 82.375 72.851562 79.589844 C 72.851562 75.421875 76.226562 72.046875 80.390625 72.046875 C 84.558594 72.046875 87.933594 75.421875 87.933594 79.589844 C 87.933594 82.375 86.40625 84.777344 84.164062 86.085938 L 84.164062 98.445312 C 84.164062 100.53125 82.472656 102.214844 80.390625 102.214844 L 53.996094 102.214844 C 53.996094 108.757812 57.332031 114.515625 62.390625 117.898438 C 61.882812 119.503906 61.535156 121.179688 61.535156 122.957031 C 61.535156 131.746094 68.242188 138.878906 76.796875 139.75 C 77.605469 144.136719 81.429688 147.46875 86.046875 147.46875 C 91.257812 147.46875 95.476562 143.25 95.476562 138.042969 L 95.476562 124.84375 L 86.886719 124.84375 C 85.578125 127.085938 83.175781 128.613281 80.390625 128.613281 C 76.226562 128.613281 72.851562 125.238281 72.851562 121.070312 C 72.851562 116.90625 76.226562 113.53125 80.390625 113.53125 C 83.175781 113.53125 85.578125 115.058594 86.886719 117.300781 L 95.476562 117.300781 L 95.476562 64.507812 C 95.476562 60.339844 92.101562 56.964844 87.933594 56.964844 Z M 110.558594 56.964844 C 106.394531 56.964844 103.019531 60.339844 103.019531 64.507812 L 103.019531 79.589844 L 111.605469 79.589844 C 112.914062 77.347656 115.320312 75.820312 118.101562 75.820312 C 122.269531 75.820312 125.644531 79.195312 125.644531 83.363281 C 125.644531 87.527344 122.269531 90.902344 118.101562 90.902344 C 115.320312 90.902344 112.914062 89.375 111.605469 87.132812 L 103.019531 87.132812 L 103.019531 138.042969 C 103.019531 143.25 107.238281 147.46875 112.445312 147.46875 C 117.066406 147.46875 120.890625 144.136719 121.695312 139.75 C 128.339844 139.074219 134.03125 134.757812 136.089844 128.613281 L 118.101562 128.613281 C 116.019531 128.613281 114.332031 126.929688 114.332031 124.84375 L 114.332031 116.253906 C 112.085938 114.949219 110.558594 112.546875 110.558594 109.757812 C 110.558594 105.59375 113.933594 102.214844 118.101562 102.214844 C 122.269531 102.214844 125.644531 105.59375 125.644531 109.757812 C 125.644531 112.542969 124.117188 114.945312 121.875 116.253906 L 121.875 121.070312 L 136.816406 121.070312 C 136.457031 117.542969 135.449219 116.027344 135.449219 116.027344 C 140.769531 113.691406 144.5 108.390625 144.5 102.214844 C 144.5 95.675781 141.164062 89.917969 136.101562 86.535156 C 136.613281 84.929688 136.957031 83.253906 136.957031 81.476562 C 136.957031 72.105469 129.359375 64.507812 119.988281 64.507812 C 119.335938 64.507812 118.714844 64.625 118.082031 64.699219 C 118.082031 64.632812 118.101562 64.570312 118.101562 64.507812 C 118.101562 60.339844 114.726562 56.964844 110.558594 56.964844 Z M 110.558594 56.964844 " fill-opacity="1" fill-rule="nonzero"/>
  </g>
</svg>